<mxfile host="app.diagrams.net" modified="2023-07-25T11:46:03.827Z" agent="Mozilla/5.0 (Windows NT 10.0; Win64; x64) AppleWebKit/537.36 (KHTML, like Gecko) Chrome/114.0.0.0 Safari/537.36" etag="zgmSMTfDL3f9lrfcmrdZ" version="21.6.5" type="device">
  <diagram name="Página-1" id="u5Iw8SxshHAgk262pzKF">
    <mxGraphModel dx="1235" dy="684" grid="1" gridSize="10" guides="1" tooltips="1" connect="1" arrows="1" fold="1" page="1" pageScale="1" pageWidth="827" pageHeight="1169" math="0" shadow="0">
      <root>
        <mxCell id="0" />
        <mxCell id="1" parent="0" />
        <mxCell id="5iS-EvI_2wy9iXnqM2I--1" value="&lt;div style=&quot;font-size: 13px;&quot;&gt;&lt;font style=&quot;font-size: 13px;&quot;&gt;A Optus é uma empresa no ramo musical que deseja realizar o gerenciamento dos lançamentos de novos cds de seus artistas. Cada álbum lançado poderá conter mais de um estilo vinculado (ex.: Indie e Folk).&lt;/font&gt;&lt;/div&gt;&lt;div style=&quot;font-size: 13px;&quot;&gt;&lt;font style=&quot;font-size: 13px;&quot;&gt;É importante que você crie também uma estratégia para que os usuários possuam acesso à plataforma.&lt;/font&gt;&lt;/div&gt;&lt;div style=&quot;font-size: 13px;&quot;&gt;&lt;font style=&quot;font-size: 13px;&quot;&gt;Os usuários deverão conter nome, email, senha e o tipo de permissão (eles podem ser do tipo administrador ou comum).&lt;/font&gt;&lt;/div&gt;&lt;div style=&quot;font-size: 13px;&quot;&gt;&lt;font style=&quot;font-size: 13px;&quot;&gt;&lt;br&gt;&lt;/font&gt;&lt;/div&gt;&lt;div style=&quot;font-size: 13px;&quot;&gt;&lt;font style=&quot;font-size: 13px;&quot;&gt;Observações:&lt;/font&gt;&lt;/div&gt;&lt;div style=&quot;font-size: 13px;&quot;&gt;&lt;font style=&quot;font-size: 13px;&quot;&gt;Os Artistas deverão possuir somente nome.&lt;/font&gt;&lt;/div&gt;&lt;div style=&quot;font-size: 13px;&quot;&gt;&lt;font style=&quot;font-size: 13px;&quot;&gt;Estilos: nome.&lt;/font&gt;&lt;/div&gt;&lt;div style=&quot;font-size: 13px;&quot;&gt;&lt;font style=&quot;font-size: 13px;&quot;&gt;Albuns: titulo, data de lançamento, localizacao, quantidade de minutos, se o álbum está ativo para visualização, a quem pertence (somente um artista por álbum) e quais os estilos vinculados.&lt;/font&gt;&lt;/div&gt;&lt;div style=&quot;font-size: 13px;&quot;&gt;&lt;font style=&quot;font-size: 13px;&quot;&gt;&lt;br&gt;&lt;/font&gt;&lt;/div&gt;&lt;div style=&quot;font-size: 13px;&quot;&gt;&lt;br&gt;&lt;/div&gt;" style="text;html=1;align=left;verticalAlign=middle;resizable=0;points=[];autosize=1;strokeColor=none;fillColor=none;" vertex="1" parent="1">
          <mxGeometry x="30" y="10" width="1230" height="170" as="geometry" />
        </mxCell>
        <mxCell id="5iS-EvI_2wy9iXnqM2I--2" value="&lt;font style=&quot;font-size: 13px;&quot;&gt;Usuário&lt;/font&gt;" style="swimlane;fontStyle=0;childLayout=stackLayout;horizontal=1;startSize=30;horizontalStack=0;resizeParent=1;resizeParentMax=0;resizeLast=0;collapsible=1;marginBottom=0;whiteSpace=wrap;html=1;" vertex="1" parent="1">
          <mxGeometry x="180" y="300" width="140" height="120" as="geometry" />
        </mxCell>
        <mxCell id="5iS-EvI_2wy9iXnqM2I--3" value="&lt;font style=&quot;font-size: 13px;&quot;&gt;- Nome&lt;/font&gt;" style="text;strokeColor=none;fillColor=none;align=left;verticalAlign=middle;spacingLeft=4;spacingRight=4;overflow=hidden;points=[[0,0.5],[1,0.5]];portConstraint=eastwest;rotatable=0;whiteSpace=wrap;html=1;" vertex="1" parent="5iS-EvI_2wy9iXnqM2I--2">
          <mxGeometry y="30" width="140" height="30" as="geometry" />
        </mxCell>
        <mxCell id="5iS-EvI_2wy9iXnqM2I--4" value="&lt;font style=&quot;font-size: 13px;&quot;&gt;- Email&lt;/font&gt;" style="text;strokeColor=none;fillColor=none;align=left;verticalAlign=middle;spacingLeft=4;spacingRight=4;overflow=hidden;points=[[0,0.5],[1,0.5]];portConstraint=eastwest;rotatable=0;whiteSpace=wrap;html=1;" vertex="1" parent="5iS-EvI_2wy9iXnqM2I--2">
          <mxGeometry y="60" width="140" height="30" as="geometry" />
        </mxCell>
        <mxCell id="5iS-EvI_2wy9iXnqM2I--5" value="&lt;font style=&quot;font-size: 13px;&quot;&gt;- Senha&lt;/font&gt;" style="text;strokeColor=none;fillColor=none;align=left;verticalAlign=middle;spacingLeft=4;spacingRight=4;overflow=hidden;points=[[0,0.5],[1,0.5]];portConstraint=eastwest;rotatable=0;whiteSpace=wrap;html=1;" vertex="1" parent="5iS-EvI_2wy9iXnqM2I--2">
          <mxGeometry y="90" width="140" height="30" as="geometry" />
        </mxCell>
        <mxCell id="5iS-EvI_2wy9iXnqM2I--6" value="&lt;font style=&quot;font-size: 13px;&quot;&gt;Artista&lt;/font&gt;" style="swimlane;fontStyle=0;childLayout=stackLayout;horizontal=1;startSize=30;horizontalStack=0;resizeParent=1;resizeParentMax=0;resizeLast=0;collapsible=1;marginBottom=0;whiteSpace=wrap;html=1;" vertex="1" parent="1">
          <mxGeometry x="460" y="180" width="140" height="60" as="geometry" />
        </mxCell>
        <mxCell id="5iS-EvI_2wy9iXnqM2I--7" value="&lt;font style=&quot;font-size: 13px;&quot;&gt;- Nome&lt;/font&gt;" style="text;strokeColor=none;fillColor=none;align=left;verticalAlign=middle;spacingLeft=4;spacingRight=4;overflow=hidden;points=[[0,0.5],[1,0.5]];portConstraint=eastwest;rotatable=0;whiteSpace=wrap;html=1;" vertex="1" parent="5iS-EvI_2wy9iXnqM2I--6">
          <mxGeometry y="30" width="140" height="30" as="geometry" />
        </mxCell>
        <mxCell id="5iS-EvI_2wy9iXnqM2I--14" value="&lt;span style=&quot;font-size: 13px;&quot;&gt;Album&lt;/span&gt;" style="swimlane;fontStyle=0;childLayout=stackLayout;horizontal=1;startSize=30;horizontalStack=0;resizeParent=1;resizeParentMax=0;resizeLast=0;collapsible=1;marginBottom=0;whiteSpace=wrap;html=1;" vertex="1" parent="1">
          <mxGeometry x="460" y="455" width="140" height="180" as="geometry" />
        </mxCell>
        <mxCell id="5iS-EvI_2wy9iXnqM2I--15" value="&lt;font style=&quot;font-size: 13px;&quot;&gt;- Nome&lt;/font&gt;" style="text;strokeColor=none;fillColor=none;align=left;verticalAlign=middle;spacingLeft=4;spacingRight=4;overflow=hidden;points=[[0,0.5],[1,0.5]];portConstraint=eastwest;rotatable=0;whiteSpace=wrap;html=1;" vertex="1" parent="5iS-EvI_2wy9iXnqM2I--14">
          <mxGeometry y="30" width="140" height="30" as="geometry" />
        </mxCell>
        <mxCell id="5iS-EvI_2wy9iXnqM2I--18" value="&lt;span style=&quot;font-size: 13px;&quot;&gt;- Data de Lançamento&lt;/span&gt;" style="text;strokeColor=none;fillColor=none;align=left;verticalAlign=middle;spacingLeft=4;spacingRight=4;overflow=hidden;points=[[0,0.5],[1,0.5]];portConstraint=eastwest;rotatable=0;whiteSpace=wrap;html=1;" vertex="1" parent="5iS-EvI_2wy9iXnqM2I--14">
          <mxGeometry y="60" width="140" height="30" as="geometry" />
        </mxCell>
        <mxCell id="5iS-EvI_2wy9iXnqM2I--20" value="&lt;font style=&quot;font-size: 13px;&quot;&gt;- Localização&lt;/font&gt;" style="text;strokeColor=none;fillColor=none;align=left;verticalAlign=middle;spacingLeft=4;spacingRight=4;overflow=hidden;points=[[0,0.5],[1,0.5]];portConstraint=eastwest;rotatable=0;whiteSpace=wrap;html=1;" vertex="1" parent="5iS-EvI_2wy9iXnqM2I--14">
          <mxGeometry y="90" width="140" height="30" as="geometry" />
        </mxCell>
        <mxCell id="5iS-EvI_2wy9iXnqM2I--21" value="&lt;font style=&quot;font-size: 13px;&quot;&gt;- Duração&lt;/font&gt;" style="text;strokeColor=none;fillColor=none;align=left;verticalAlign=middle;spacingLeft=4;spacingRight=4;overflow=hidden;points=[[0,0.5],[1,0.5]];portConstraint=eastwest;rotatable=0;whiteSpace=wrap;html=1;" vertex="1" parent="5iS-EvI_2wy9iXnqM2I--14">
          <mxGeometry y="120" width="140" height="30" as="geometry" />
        </mxCell>
        <mxCell id="5iS-EvI_2wy9iXnqM2I--22" value="&lt;font style=&quot;font-size: 13px;&quot;&gt;- Ativo&lt;/font&gt;" style="text;strokeColor=none;fillColor=none;align=left;verticalAlign=middle;spacingLeft=4;spacingRight=4;overflow=hidden;points=[[0,0.5],[1,0.5]];portConstraint=eastwest;rotatable=0;whiteSpace=wrap;html=1;" vertex="1" parent="5iS-EvI_2wy9iXnqM2I--14">
          <mxGeometry y="150" width="140" height="30" as="geometry" />
        </mxCell>
        <mxCell id="5iS-EvI_2wy9iXnqM2I--16" value="&lt;span style=&quot;font-size: 13px;&quot;&gt;Estilo&lt;/span&gt;" style="swimlane;fontStyle=0;childLayout=stackLayout;horizontal=1;startSize=30;horizontalStack=0;resizeParent=1;resizeParentMax=0;resizeLast=0;collapsible=1;marginBottom=0;whiteSpace=wrap;html=1;" vertex="1" parent="1">
          <mxGeometry x="880" y="525" width="140" height="60" as="geometry" />
        </mxCell>
        <mxCell id="5iS-EvI_2wy9iXnqM2I--17" value="&lt;font style=&quot;font-size: 13px;&quot;&gt;- Nome&lt;/font&gt;" style="text;strokeColor=none;fillColor=none;align=left;verticalAlign=middle;spacingLeft=4;spacingRight=4;overflow=hidden;points=[[0,0.5],[1,0.5]];portConstraint=eastwest;rotatable=0;whiteSpace=wrap;html=1;" vertex="1" parent="5iS-EvI_2wy9iXnqM2I--16">
          <mxGeometry y="30" width="140" height="30" as="geometry" />
        </mxCell>
        <mxCell id="5iS-EvI_2wy9iXnqM2I--25" style="edgeStyle=orthogonalEdgeStyle;rounded=0;orthogonalLoop=1;jettySize=auto;html=1;entryX=0.505;entryY=0.992;entryDx=0;entryDy=0;entryPerimeter=0;endArrow=none;endFill=0;" edge="1" parent="1" source="5iS-EvI_2wy9iXnqM2I--23" target="5iS-EvI_2wy9iXnqM2I--7">
          <mxGeometry relative="1" as="geometry" />
        </mxCell>
        <mxCell id="5iS-EvI_2wy9iXnqM2I--26" style="edgeStyle=orthogonalEdgeStyle;rounded=0;orthogonalLoop=1;jettySize=auto;html=1;entryX=0.5;entryY=0;entryDx=0;entryDy=0;endArrow=none;endFill=0;" edge="1" parent="1" source="5iS-EvI_2wy9iXnqM2I--23" target="5iS-EvI_2wy9iXnqM2I--14">
          <mxGeometry relative="1" as="geometry" />
        </mxCell>
        <mxCell id="5iS-EvI_2wy9iXnqM2I--23" value="Possui" style="rhombus;whiteSpace=wrap;html=1;" vertex="1" parent="1">
          <mxGeometry x="490" y="310" width="80" height="80" as="geometry" />
        </mxCell>
        <mxCell id="5iS-EvI_2wy9iXnqM2I--27" style="edgeStyle=orthogonalEdgeStyle;rounded=0;orthogonalLoop=1;jettySize=auto;html=1;entryX=1;entryY=0.5;entryDx=0;entryDy=0;endArrow=none;endFill=0;" edge="1" parent="1" source="5iS-EvI_2wy9iXnqM2I--24" target="5iS-EvI_2wy9iXnqM2I--20">
          <mxGeometry relative="1" as="geometry" />
        </mxCell>
        <mxCell id="5iS-EvI_2wy9iXnqM2I--28" style="edgeStyle=orthogonalEdgeStyle;rounded=0;orthogonalLoop=1;jettySize=auto;html=1;entryX=0.005;entryY=0.159;entryDx=0;entryDy=0;entryPerimeter=0;endArrow=none;endFill=0;" edge="1" parent="1" source="5iS-EvI_2wy9iXnqM2I--24" target="5iS-EvI_2wy9iXnqM2I--17">
          <mxGeometry relative="1" as="geometry" />
        </mxCell>
        <mxCell id="5iS-EvI_2wy9iXnqM2I--24" value="Possui" style="rhombus;whiteSpace=wrap;html=1;" vertex="1" parent="1">
          <mxGeometry x="700" y="520" width="80" height="80" as="geometry" />
        </mxCell>
        <mxCell id="5iS-EvI_2wy9iXnqM2I--31" value="&lt;font style=&quot;font-size: 13px;&quot;&gt;1&lt;/font&gt;" style="text;html=1;align=center;verticalAlign=middle;resizable=0;points=[];autosize=1;strokeColor=none;fillColor=none;" vertex="1" parent="1">
          <mxGeometry x="540" y="260" width="30" height="30" as="geometry" />
        </mxCell>
        <mxCell id="5iS-EvI_2wy9iXnqM2I--32" value="&lt;font style=&quot;font-size: 13px;&quot;&gt;N&lt;/font&gt;" style="text;html=1;align=center;verticalAlign=middle;resizable=0;points=[];autosize=1;strokeColor=none;fillColor=none;" vertex="1" parent="1">
          <mxGeometry x="540" y="408" width="30" height="30" as="geometry" />
        </mxCell>
        <mxCell id="5iS-EvI_2wy9iXnqM2I--33" value="&lt;font style=&quot;font-size: 13px;&quot;&gt;1&lt;/font&gt;" style="text;html=1;align=center;verticalAlign=middle;resizable=0;points=[];autosize=1;strokeColor=none;fillColor=none;" vertex="1" parent="1">
          <mxGeometry x="615" y="520" width="30" height="30" as="geometry" />
        </mxCell>
        <mxCell id="5iS-EvI_2wy9iXnqM2I--34" value="&lt;font style=&quot;font-size: 13px;&quot;&gt;N&lt;/font&gt;" style="text;html=1;align=center;verticalAlign=middle;resizable=0;points=[];autosize=1;strokeColor=none;fillColor=none;" vertex="1" parent="1">
          <mxGeometry x="827" y="520" width="30" height="30" as="geometry" />
        </mxCell>
        <mxCell id="5iS-EvI_2wy9iXnqM2I--35" value="&lt;font style=&quot;font-size: 13px;&quot;&gt;Relacionamento 1 : N&lt;/font&gt;" style="text;html=1;align=center;verticalAlign=middle;resizable=0;points=[];autosize=1;strokeColor=none;fillColor=none;" vertex="1" parent="1">
          <mxGeometry x="645" y="370" width="150" height="30" as="geometry" />
        </mxCell>
      </root>
    </mxGraphModel>
  </diagram>
</mxfile>
